<svg width="0" height="0" class="hidden">
  <symbol xmlns="http://www.w3.org/2000/svg" fill="none" viewBox="0 0 64 64" id="clock">
    <path fill="#2e2f42" d="M62.593 30.603C62.59 13.697 48.883-.004 31.978 0S1.372 13.71 1.375 30.616a30.61 30.61 0 0 0 21.299 29.152c.12.038.247.058.373.057.242 0 .478-.065.685-.187.27-.16.472-.414.567-.713l7.73-24.5a3.826 3.826 0 1 0-1.68-7.27L20.137 16.942a1.275 1.275 0 0 0-1.803 1.804l10.207 10.218a3.75 3.75 0 0 0 1.072 4.618l-7.365 23.346C7.692 51.566.24 35.42 5.601 20.864 10.963 6.31 27.11-1.145 41.665 4.217 56.22 9.58 63.673 25.726 58.312 40.281a28.09 28.09 0 0 1-14.925 15.947l-.796-3.749a1.275 1.275 0 0 0-2.096-.687l-7.674 6.851a1.275 1.275 0 0 0 .462 2.169l9.797 3.127a1.275 1.275 0 0 0 1.638-1.48l-.782-3.678a30.51 30.51 0 0 0 18.657-28.178m-30.609-1.276a1.276 1.276 0 1 1 0 2.552 1.276 1.276 0 0 1 0-2.552m4.201 29.728 4.368-3.896 1.206 5.68z"></path>
    <path fill="#4d5ae5" d="M30.709 6.37v2.55a1.275 1.275 0 1 0 2.55 0V6.37a1.276 1.276 0 0 0-2.55 0M7.752 29.327a1.275 1.275 0 0 0 0 2.55h2.55a1.275 1.275 0 1 0 0-2.55zM56.216 31.878a1.275 1.275 0 1 0 0-2.55h-2.55a1.276 1.276 0 0 0 0 2.55z"></path>
  </symbol>
  <symbol xmlns="http://www.w3.org/2000/svg" fill="none" viewBox="0 0 64 64" id="diagram">
    <g clip-path="url(#a)">
      <path fill="#4d5ae5" d="M29.851 29.93h2.132v9.594h-2.132zM38.38 34.194h2.132v5.33H38.38zM21.322 37.392h2.132v2.132h-2.132zM14.926 36.326h2.132v3.198h-2.133z"></path>
      <path fill="#2e2f42" d="M3.198 56.582h51.174a3.2 3.2 0 0 0 3.198-3.198v-4.265a3.2 3.2 0 0 0-3.199-3.198h-1.066V19.334l6.056-5.736a3.216 3.216 0 1 0-1.493-1.526l-4.563 4.325v-2.46a3.2 3.2 0 0 0-3.198-3.198H7.463a3.2 3.2 0 0 0-3.199 3.199V45.92H3.198A3.2 3.2 0 0 0 0 49.119v4.265a3.2 3.2 0 0 0 3.198 3.198m57.57-46.909a1.066 1.066 0 1 1 0 2.133 1.066 1.066 0 0 1 0-2.133M6.397 13.938c0-.59.477-1.067 1.066-1.067h42.644c.589 0 1.066.478 1.066 1.067v4.477l-2.132 2.026V16.07c0-.589-.477-1.066-1.066-1.066H9.595c-.589 0-1.066.477-1.066 1.066v26.652c0 .59.477 1.067 1.066 1.067h38.38c.589 0 1.066-.478 1.066-1.067V23.374l2.132-2.02V45.92H6.397zm9.595 13.859a3.198 3.198 0 1 0 2.214 5.497l3.706 1.859c.43.215.953.115 1.273-.245l7.877-8.863 7.744 5.803c.416.311.996.278 1.372-.079l6.73-6.375v16.262H10.662v-24.52H46.91v5.32L39.366 29.6l-7.81-5.855a1.067 1.067 0 0 0-1.435.145l-7.986 8.985-2.986-1.493q.033-.192.041-.387a3.2 3.2 0 0 0-3.198-3.198m1.066 3.198a1.066 1.066 0 1 1-2.132 0 1.066 1.066 0 0 1 2.132 0m6.396 17.058h10.661v1.066c0 .589-.477 1.066-1.066 1.066H24.52a1.066 1.066 0 0 1-1.066-1.066zM2.132 49.12c0-.589.478-1.066 1.066-1.066h18.124v1.066a3.2 3.2 0 0 0 3.198 3.199h8.53a3.2 3.2 0 0 0 3.198-3.199v-1.066h18.124c.588 0 1.066.477 1.066 1.066v4.265c0 .588-.478 1.066-1.067 1.066H3.198a1.066 1.066 0 0 1-1.066-1.066z"></path>
    </g>
    <defs>
      <clipPath id="a">
        <path fill="#fff" d="M0 0h64v64H0z"></path>
      </clipPath>
    </defs>
  </symbol>
  <symbol xmlns="http://www.w3.org/2000/svg" fill="none" viewBox="0 0 40 40" id="facebook">
    <rect width="40" height="40" fill="#4d5ae5" rx="20"></rect>
    <g clip-path="url(#a)">
      <path fill="#f4f4fd" d="M22.665 14.657h1.46v-2.544A19 19 0 0 0 21.997 12c-2.106 0-3.548 1.325-3.548 3.76V18h-2.324v2.844h2.324V28h2.849v-7.155h2.23L23.882 18h-2.585v-1.96c.001-.822.222-1.385 1.368-1.385"></path>
    </g>
    <defs>
      <clipPath id="a">
        <path fill="#fff" d="M12 12h16v16H12z"></path>
      </clipPath>
    </defs>
  </symbol>
  <symbol xmlns="http://www.w3.org/2000/svg" fill="none" viewBox="0 0 40 40" id="instagram">
    <rect width="40" height="40" fill="#4d5ae5" rx="20"></rect>
    <g fill="#f4f4fd" clip-path="url(#a)">
      <path d="M27.984 16.704c-.037-.85-.175-1.435-.372-1.941a3.9 3.9 0 0 0-.925-1.42 3.9 3.9 0 0 0-1.416-.921c-.51-.197-1.09-.335-1.94-.372-.857-.04-1.13-.05-3.301-.05-2.173 0-2.445.01-3.298.047-.85.037-1.434.175-1.94.372a3.9 3.9 0 0 0-1.42.925c-.406.4-.722.885-.922 1.416-.197.51-.334 1.09-.372 1.94-.04.857-.05 1.13-.05 3.301 0 2.173.01 2.445.047 3.298.037.85.175 1.435.372 1.941.203.538.519 1.019.925 1.419.4.406.885.722 1.416.922.51.197 1.09.335 1.941.372.853.038 1.125.047 3.297.047s2.445-.01 3.298-.047c.85-.037 1.435-.175 1.941-.372a4.1 4.1 0 0 0 2.341-2.341c.197-.51.335-1.09.372-1.941.037-.853.047-1.125.047-3.298s-.003-2.444-.04-3.297m-1.44 6.532c-.035.782-.166 1.204-.276 1.485a2.65 2.65 0 0 1-1.519 1.52c-.281.109-.706.24-1.484.274-.844.038-1.097.047-3.232.047s-2.391-.01-3.232-.047c-.782-.034-1.203-.165-1.485-.275a2.5 2.5 0 0 1-.919-.597 2.5 2.5 0 0 1-.597-.919c-.11-.281-.24-.706-.275-1.484-.037-.844-.047-1.098-.047-3.232s.01-2.391.047-3.232c.035-.782.166-1.203.275-1.485.128-.347.332-.662.6-.919.26-.265.572-.469.92-.597.28-.11.706-.24 1.484-.275.844-.037 1.097-.047 3.232-.047 2.138 0 2.39.01 3.232.047.781.035 1.203.166 1.484.275.347.128.663.332.92.597.265.26.468.572.596.92.11.28.241.706.275 1.484.038.844.047 1.097.047 3.232 0 2.134-.01 2.384-.047 3.228"></path>
      <path d="M20.03 15.891a4.111 4.111 0 0 0 0 8.22 4.111 4.111 0 0 0 0-8.22m0 6.777a2.667 2.667 0 1 1 0-5.334 2.667 2.667 0 0 1 0 5.334M25.262 15.729a.96.96 0 1 1-1.92 0 .96.96 0 0 1 1.92 0"></path>
    </g>
    <defs>
      <clipPath id="a">
        <path fill="#fff" d="M12 12h16v16H12z"></path>
      </clipPath>
    </defs>
  </symbol>
  <symbol xmlns="http://www.w3.org/2000/svg" fill="none" viewBox="0 0 40 40" id="twitter">
    <rect width="40" height="40" fill="#4d5ae5" rx="20"></rect>
    <g clip-path="url(#a)">
      <path fill="#f4f4fd" d="M24.6 12.75h2.454l-5.36 6.142L28 27.25h-4.937l-3.867-5.07-4.425 5.07h-2.455l5.733-6.57L12 12.75h5.063l3.495 4.633zm-.86 13.028h1.36l-8.777-11.633h-1.458z"></path>
    </g>
    <defs>
      <clipPath id="a">
        <path fill="#fff" d="M12 12h16v16H12z"></path>
      </clipPath>
    </defs>
  </symbol>
  <symbol xmlns="http://www.w3.org/2000/svg" fill="none" viewBox="0 0 64 64" id="antena">
    <path fill="#2e2f42" d="M61.546 44.195 44.66 27.185l1.874-9.23c.484.188.998.287 1.517.29h.013a4.318 4.318 0 1 0-4.017-2.87l-9.92 1.21L17.945.32a1.07 1.07 0 0 0-.753-.32c-.28.001-.548.113-.747.31L13.42 3.318a1.067 1.067 0 0 0 0 1.509l1.628 1.65a29.885 29.885 0 0 0 5.04 35.327q.127.122.291.195a6 6 0 0 0-.104 1.094v12.374h-12.8A5.34 5.34 0 0 0 2.14 60.8v2.133c0 .59.478 1.067 1.067 1.067h49.067c.589 0 1.067-.478 1.067-1.067V60.8a5.34 5.34 0 0 0-5.334-5.333h-12.8v-5.484c2.005.42 4.048.635 6.097.64a29.7 29.7 0 0 0 14.08-3.567l1.637 1.646c.198.202.469.318.753.32.28-.002.548-.113.746-.31l3.025-3.009a1.067 1.067 0 0 0 0-1.508M46.56 12.466a2.133 2.133 0 1 1 1.503 3.646h-.006a2.133 2.133 0 0 1-1.493-3.646zm-2.511 7.01-1.197 5.89-2.351-2.364zm-1.212-1.804-3.84 3.817-2.97-2.987zM48.008 57.6a3.2 3.2 0 0 1 3.2 3.2v1.067H4.275V60.8a3.2 3.2 0 0 1 3.2-3.2zm-14.933-4.267v2.134H22.408v-2.134zM22.408 51.2v-8.107c0-2.587 2.393-4.693 5.333-4.693s5.334 2.106 5.334 4.693V51.2zm12.8-3.392v-4.715c0-3.764-3.35-6.826-7.466-6.826a7.6 7.6 0 0 0-6.563 3.572 27.74 27.74 0 0 1-4.557-31.774l37.204 37.417a27.64 27.64 0 0 1-18.618 2.326m22.578-1.367L17.182 5.59l-1.51-1.512 1.51-1.504 15.87 15.96c.007 0 .011.013.019.019L59.3 44.937z"></path>
    <path fill="#4d5ae5" d="M27.751 40.533h-.01a3.2 3.2 0 0 0-.01 6.4h.01a3.2 3.2 0 1 0 .01-6.4m.747 3.957a1.067 1.067 0 1 1-.757-1.823 1.067 1.067 0 0 1 .747 1.823z"></path>
  </symbol>
  <symbol xmlns="http://www.w3.org/2000/svg" fill="none" viewBox="0 0 64 64" id="astronaut">
    <path fill="#4d5ae5" d="M63.948 9.048a1.07 1.07 0 0 0-.86-.725l-3.822-.556-1.71-3.462c-.358-.73-1.553-.73-1.912 0l-1.71 3.462-3.82.556a1.067 1.067 0 0 0-.592 1.819l2.765 2.695-.653 3.806c-.068.4.096.804.424 1.043.332.241.765.271 1.124.081L56.6 15.97l3.417 1.797a1.068 1.068 0 0 0 1.548-1.124l-.652-3.806 2.766-2.695a1.07 1.07 0 0 0 .27-1.094m-4.926 2.654c-.25.244-.366.598-.306.944l.382 2.228-2.001-1.051a1.06 1.06 0 0 0-.994 0l-2.001 1.051.381-2.228a1.07 1.07 0 0 0-.306-.944l-1.62-1.579 2.238-.325c.348-.05.648-.269.803-.584l1-2.026L57.6 9.214c.156.315.456.534.804.584l2.237.325zM52.267 41.044h-2.134v2.134h2.134zM52.267 45.311h-2.134v2.134h2.134zM54.4 43.178h-2.133v2.133H54.4zM50.134 43.178H48v2.133h2.133zM44.8 52.778h-2.133v2.133H44.8zM44.8 57.045h-2.133v2.133H44.8zM46.934 54.911H44.8v2.134h2.134zM42.667 54.911h-2.134v2.134h2.134zM32 48.511h-2.133v2.134H32zM32 52.778h-2.133v2.133H32zM34.133 50.645H32v2.133h2.133zM29.867 50.645h-2.134v2.133h2.134zM11.733 12.244H9.6v2.133h2.133zM11.733 16.51H9.6v2.134h2.133zM13.866 14.377h-2.133v2.134h2.133zM9.6 14.377H7.466v2.134H9.6z"></path>
    <path fill="#2e2f42" d="M49.43 28.319a3.55 3.55 0 0 0-2.377-1.41 3.55 3.55 0 0 0-2.68.705l-2.503 1.919h-.001l-3.796 2.835-2.715-1.082c4.842-2.173 8.227-7.016 8.227-12.64C43.585 11 37.34 4.78 29.663 4.78S15.74 11 15.74 18.646c0 2.771.828 5.348 2.24 7.517l-5.528-.048h-.01c-.017 0-.03.009-.047.01q-.158.007-.31.061c-.026.01-.052.015-.077.027-.013.005-.025.006-.038.013l-6.466 3.192-.002.001-3.787 1.822a1 1 0 0 0-.126.07A3.56 3.56 0 0 0 .393 35.9a3.55 3.55 0 0 0 2.112 1.779 3.558 3.558 0 0 0 2.757-.257l2.776-1.476 4.528-2.339 2.714-.015-10.884 10.83q0 .002-.003.003l-2.677 2.666a3.3 3.3 0 0 0-.98 2.356c0 .89.347 1.727.98 2.357.65.647 1.504.97 2.358.97.856 0 1.709-.323 2.36-.97l2.629-2.617 3.481-2.6 1.802 1.794-3.523 3.508q-.002.002-.003.002L8.142 54.56a3.3 3.3 0 0 0-.98 2.355c0 .89.348 1.727.98 2.358.65.646 1.505.97 2.36.97.854 0 1.71-.324 2.36-.97l6.964-6.933q0-.003.002-.004l2.019-2-.008-.007c.013-.013.031-.017.044-.031L32.215 38.98l6.942.988q.075.011.15.01c.13 0 .254-.03.375-.076q.05-.02.1-.047c.038-.019.078-.03.114-.054l6.427-4.267c.024-.016.036-.041.059-.059.025-.02.057-.028.08-.05l2.544-2.383a3.56 3.56 0 0 0 .423-4.723M4.26 35.54c-.346.186-.74.223-1.116.104a1.43 1.43 0 0 1-.425-2.52l2.628-1.264.898 2.625zm6.995-3.655-3.097 1.6-.877-2.567 4.053-2zm30.199-13.241c0 1.837-.438 3.57-1.198 5.119l-8.363-3.799a3.72 3.72 0 0 0-1.576-2.775l2.928-9.72C38 8.98 41.454 13.416 41.454 18.643m-23.578 0c0-6.47 5.289-11.734 11.789-11.734.506 0 1 .043 1.49.105l-2.864 9.507c-.038 0-.075-.011-.114-.011a3.743 3.743 0 0 0-3.745 3.733 3.744 3.744 0 0 0 3.745 3.733c1.389 0 2.589-.766 3.236-1.889l7.725 3.51c-2.15 2.893-5.59 4.78-9.473 4.78-6.5 0-11.789-5.265-11.789-11.734m11.913 1.6c0 .882-.724 1.6-1.612 1.6a1.61 1.61 0 0 1-1.612-1.6c0-.882.723-1.6 1.612-1.6.888 0 1.612.718 1.612 1.6M4.929 50.292a1.217 1.217 0 0 1-1.708.002 1.19 1.19 0 0 1 0-1.689l1.924-1.917 1.702 1.695zm6.428 7.467a1.216 1.216 0 0 1-1.71.002 1.19 1.19 0 0 1 0-1.689l1.926-1.918 1.703 1.695zm6.964-6.937-.004.002-3.53 3.52-1.703-1.695 3.527-3.51v-.002q0 0 .003-.002c.08-.08.13-.176.18-.27.013-.028.04-.052.052-.08.033-.083.038-.171.05-.258.007-.049.028-.095.028-.145 0-.071-.025-.14-.04-.211-.013-.064-.013-.13-.037-.191-.04-.1-.11-.189-.183-.275-.02-.024-.027-.054-.05-.076h-.001l-.002-.004-3.214-3.2c-.034-.034-.078-.048-.116-.077a1 1 0 0 0-.174-.115 1 1 0 0 0-.187-.066 1 1 0 0 0-.206-.039 1 1 0 0 0-.19.01 1 1 0 0 0-.209.04 1 1 0 0 0-.188.09c-.04.022-.085.03-.122.057l-3.547 2.648-1.801-1.794 4.798-4.773 8.72 8.578zm13.637-14.034c-.03-.004-.06.008-.09.006a1.091 1.091 0 0 0-.406.056 1 1 0 0 0-.194.094q-.089.053-.166.123c-.026.022-.057.033-.08.058l-9.397 10.292-8.656-8.514 5.666-5.636a1.068 1.068 0 0 0-.759-1.822l-4.437.026.055-3.215 6.208.053a13.9 13.9 0 0 0 9.963 4.202c.875 0 1.728-.09 2.559-.245.08.064.159.129.26.17l4.818 1.92.662 3.287zm8.083.357-.626-3.116 2.892-2.16 1.894 2.513zm7.507-5.662-1.676 1.57-1.862-2.473 1.663-1.274c.31-.24.701-.337 1.085-.286.387.054.728.256.96.568.434.584.36 1.398-.17 1.895"></path>
    <path fill="#2e2f42" d="m27.204 37.088-4.286-4.267a1.066 1.066 0 0 0-1.505 0l-4.285 4.267a1.07 1.07 0 0 0 0 1.513l4.285 4.266a1.066 1.066 0 0 0 1.505 0l4.286-4.266a1.067 1.067 0 0 0 0-1.513m-5.038 3.518-2.773-2.762 2.773-2.761 2.775 2.761zM34.329 10.142l-.516 2.071c.142.035 3.475.904 3.475 4.298h2.134c0-4.034-3.331-5.931-5.093-6.37M39.422 18.644h-2.133v2.134h2.133z"></path>
  </symbol>
</svg>
<svg width="0" height="0" class="hidden">
  <symbol xmlns="http://www.w3.org/2000/svg" fill="none" viewBox="0 0 40 40" id="linkedin">
    <rect width="40" height="40" fill="#4d5ae5" rx="20"></rect>
    <g fill="#f4f4fd" clip-path="url(#a)">
      <path d="M27.996 28H28V22.13c0-2.87-.618-5.082-3.974-5.082-1.613 0-2.696.886-3.138 1.725h-.047v-1.457H17.66V28h3.314v-5.29c0-1.392.264-2.738 1.988-2.738 1.7 0 1.725 1.589 1.725 2.828V28zM12.264 17.318h3.317V28h-3.317zM13.921 12c-1.06 0-1.92.86-1.92 1.921s.86 1.94 1.92 1.94 1.922-.88 1.922-1.94S14.98 12 13.92 12"></path>
    </g>
    <defs>
      <clipPath id="a">
        <path fill="#fff" d="M12 12h16v16H12z"></path>
      </clipPath>
    </defs>
  </symbol>
</svg>
<svg width="0" height="0" class="hidden">
  <symbol fill="none" xmlns="http://www.w3.org/2000/svg" viewBox="0 0 14 14" id="check">
    <rect x="0.4375" y="0.4375" width="13.125" height="13.125" rx="1.3125" stroke="#2E2F42" stroke-opacity="0.4" stroke-width="0.875"></rect>
  </symbol>
</svg>
<svg width="0" height="0" class="hidden">
  <symbol fill="none" xmlns="http://www.w3.org/2000/svg" viewBox="0 0 8 8" id="close">
    <g clip-path="url(#clip0_1080568_48)">
      <path d="M8 0.805714L7.19429 0L4 3.19429L0.805714 0L0 0.805714L3.19429 4L0 7.19429L0.805714 8L4 4.80571L7.19429 8L8 7.19429L4.80571 4L8 0.805714Z" fill="#2E2F42"></path>
    </g>
    <defs>
      <clipPath id="clip0_1080568_48">
        <rect width="8" height="8" fill="white"></rect>
      </clipPath>
    </defs>
  </symbol>
</svg>
<svg width="0" height="0" class="hidden">
  <symbol fill="none" xmlns="http://www.w3.org/2000/svg" viewBox="0 0 15 12" id="email">
    <path d="M13.5 0H1.5C0.675 0 0.00749999 0.675 0.00749999 1.5L0 10.5C0 11.325 0.675 12 1.5 12H13.5C14.325 12 15 11.325 15 10.5V1.5C15 0.675 14.325 0 13.5 0ZM13.2 3.1875L7.8975 6.5025C7.6575 6.6525 7.3425 6.6525 7.1025 6.5025L1.8 3.1875C1.6125 3.0675 1.5 2.865 1.5 2.6475C1.5 2.145 2.0475 1.845 2.475 2.1075L7.5 5.25L12.525 2.1075C12.9525 1.845 13.5 2.145 13.5 2.6475C13.5 2.865 13.3875 3.0675 13.2 3.1875Z" fill="#2E2F42"></path>
  </symbol>
</svg>
<svg width="0" height="0" class="hidden">
  <symbol fill="none" xmlns="http://www.w3.org/2000/svg" viewBox="0 0 24 20" id="frame-3">
    <path d="M24 0L0 11.25L7.66994 13.6172L19.5 4.375L10.5017 14.4913L10.509 14.4936L10.5 14.4913V20L14.8013 15.8183L20.2501 17.5L24 0Z" fill="white"></path>
  </symbol>
</svg>
<svg width="0" height="0" class="hidden">
  <symbol fill="none" xmlns="http://www.w3.org/2000/svg" viewBox="0 0 12 12" id="person">
    <path d="M6 6C7.6575 6 9 4.6575 9 3C9 1.3425 7.6575 0 6 0C4.3425 0 3 1.3425 3 3C3 4.6575 4.3425 6 6 6ZM6 7.5C3.9975 7.5 0 8.505 0 10.5V11.25C0 11.6625 0.3375 12 0.75 12H11.25C11.6625 12 12 11.6625 12 11.25V10.5C12 8.505 8.0025 7.5 6 7.5Z" fill="#4D5AE5"></path>
  </symbol>
</svg>
<svg width="0" height="0" class="hidden">
  <symbol fill="none" xmlns="http://www.w3.org/2000/svg" viewBox="0 0 13 13" id="phone">
    <path d="M11.7263 8.86511L9.88811 8.65525C9.44667 8.60459 9.01246 8.75656 8.70128 9.06775L7.36971 10.3993C5.3217 9.35722 3.64276 7.68551 2.60067 5.63025L3.93947 4.29144C4.25065 3.98025 4.40263 3.54605 4.35197 3.1046L4.1421 1.28092C4.05526 0.549999 3.44013 0 2.70198 0H1.45002C0.632259 0 -0.0479991 0.680262 0.00265842 1.49802C0.386208 7.67827 5.32894 12.6138 11.5019 12.9973C12.3197 13.048 12.9999 12.3677 12.9999 11.55V10.298C13.0072 9.56709 12.4572 8.95196 11.7263 8.86511Z" fill="#2E2F42"></path>
  </symbol>
</svg>